<?xml version="1.0" encoding="UTF-8"?>
<svg version="1.1" xmlns="http://www.w3.org/2000/svg" width="1024" height="1024">
<path d="M0 0 C0.33 1.32 0.66 2.64 1 4 C4.3 4 7.6 4 11 4 C11.33 3.34 11.66 2.68 12 2 C12 2.99 12 3.98 12 5 C13.08152344 4.94972656 14.16304687 4.89945313 15.27734375 4.84765625 C20.87953345 4.8488894 26.13291079 6.16510434 31.5625 7.4375 C40.72257123 9.54137502 40.72257123 9.54137502 50 11 C50 11.66 50 12.32 50 13 C54.29338737 14.00276394 58.48765563 14.94215467 62.875 15.4375 C66.35373339 16.06367201 66.66771437 16.60860799 69 19 C70.72504679 19.95519478 70.72504679 19.95519478 72.6328125 20.69140625 C73.34791992 20.99095215 74.06302734 21.29049805 74.79980469 21.59912109 C75.95077637 22.07599365 75.95077637 22.07599365 77.125 22.5625 C99.52136169 32.20550353 119.33697006 46.59731641 136.94189453 63.37084961 C139.4732899 65.75132988 141.77351135 67.66516427 145 69 C150.08315438 66.05377512 150.08315438 66.05377512 152.9375 61.1875 C152.958125 60.465625 152.97875 59.74375 153 59 C153.66 59.66 154.32 60.32 155 61 C158.21518451 59.46194736 161.28959142 57.7044681 164.37841797 55.92895508 C184.18170195 44.5903188 205.52316131 36.14608854 228.3359375 33.45703125 C231.93916494 33.12937472 231.93916494 33.12937472 235 32 C237.50182197 31.9034819 239.97491789 31.85998641 242.4765625 31.8671875 C243.56534195 31.86575241 243.56534195 31.86575241 244.67611694 31.86428833 C246.20758145 31.86360866 247.73904886 31.86544811 249.27050781 31.86962891 C251.62311201 31.87499569 253.97552662 31.86966884 256.328125 31.86328125 C257.81510459 31.86394177 259.30208406 31.86522238 260.7890625 31.8671875 C261.8499559 31.86415115 261.8499559 31.86415115 262.93228149 31.86105347 C267.88503757 31.88503757 267.88503757 31.88503757 269 33 C270.48724866 33.33157963 271.98619956 33.61105426 273.48828125 33.8671875 C274.88167725 34.11021606 274.88167725 34.11021606 276.30322266 34.3581543 C277.29628418 34.52871338 278.2893457 34.69927246 279.3125 34.875 C287.31264542 36.28478251 295.16165101 37.85606134 303 40 C303.69867187 40.15082031 304.39734375 40.30164063 305.1171875 40.45703125 C307 41 307 41 310 43 C312.13258839 44.04822141 314.28029375 45.06592458 316.4375 46.0625 C317.57058594 46.58972656 318.70367188 47.11695313 319.87109375 47.66015625 C322.31173432 48.7052745 324.45256715 49.37277031 327 50 C329.78257591 51.47350043 332.37073462 53.2701069 335 55 C335.90105469 55.58007812 336.80210937 56.16015625 337.73046875 56.7578125 C358.62800912 70.39504492 378.67606043 87.06355559 391.6328125 108.73046875 C392.93100137 111.09154683 392.93100137 111.09154683 395 113 C395.7115625 114.5159375 395.7115625 114.5159375 396.4375 116.0625 C397.72143001 119.28995535 397.72143001 119.28995535 401 120 C401.08636719 120.7940625 401.17273438 121.588125 401.26171875 122.40625 C402.21510977 127.04709517 403.97925205 131.14551929 405.8125 135.5 C409.12812987 143.57014581 411.87081624 151.52832704 414 160 C414.21269531 160.845625 414.42539062 161.69125 414.64453125 162.5625 C414.82371094 163.284375 415.00289062 164.00625 415.1875 164.75 C415.8406917 167.86215877 415.8406917 167.86215877 417 170 C419.95074353 193.26865305 420.02077885 219.30034399 414 242 C413.67056396 243.27133789 413.67056396 243.27133789 413.33447266 244.56835938 C410.8811951 253.82587951 407.84530599 262.81191247 404.25 271.6875 C403.95633545 272.41300049 403.6626709 273.13850098 403.36010742 273.88598633 C401.2554647 278.87226765 401.2554647 278.87226765 399 280 C398.3295716 281.66515705 397.66396768 283.33225627 397 285 C391.67321023 294.71146351 385.33546007 303.71093012 378 312 C377.57074219 312.48952148 377.14148438 312.97904297 376.69921875 313.48339844 C364.21336839 327.66941142 350.09290729 339.14719962 334 349 C334 349.33 334 349.66 334 350 C337.95667259 350.82072694 341.91559863 351.63004905 345.875 352.4375 C346.98359375 352.66759766 348.0921875 352.89769531 349.234375 353.13476562 C355.81348415 354.46993778 362.3034533 355.50083733 369 356 C369 356.99 369 357.98 369 359 C369.83660156 359.10183594 370.67320312 359.20367187 371.53515625 359.30859375 C375.42614198 360.08503622 378.84146549 361.44297948 382.4375 363.0625 C383.13560791 363.37485596 383.83371582 363.68721191 384.55297852 364.0090332 C403.85543349 372.77140342 421.0040396 383.92506154 436 399 C436.48694336 399.48436523 436.97388672 399.96873047 437.47558594 400.46777344 C448.70301354 411.75552302 456.23066936 424.67775061 463 439 C463.66 439 464.32 439 465 439 C465.12375 440.5778125 465.12375 440.5778125 465.25 442.1875 C465.71063239 445.95152469 466.69037949 449.33842393 467.875 452.9375 C475.90966929 478.67765871 474.07748106 506.38658805 474.125 533.0625 C474.12776947 534.09738556 474.13053894 535.13227112 474.13339233 536.19851685 C474.22856615 584.88064937 474.22856615 584.88064937 456.4140625 603.6484375 C433.68546502 625.78859233 403.68226899 624.17466737 374.0234375 624.09765625 C371.87440016 624.09578578 369.72536239 624.09436486 367.57632446 624.09336853 C361.98371149 624.08959281 356.39112545 624.07980619 350.79852295 624.06866455 C345.0662065 624.05834268 339.33388561 624.05384808 333.6015625 624.04882812 C322.40102998 624.03817829 311.20051725 624.02116311 300 624 C299.97625305 624.74375885 299.9525061 625.4875177 299.92803955 626.2538147 C299.81639854 629.66158195 299.69731825 633.06905138 299.578125 636.4765625 C299.54090332 637.64646729 299.50368164 638.81637207 299.46533203 640.02172852 C298.68511633 661.78362728 291.93797964 680.81497765 277 697 C262.60478052 710.06965 262.60478052 710.06965 254 712 C251.46809843 712.96195603 248.95145722 713.95696151 246.4375 714.96484375 C235.4002361 718.28856527 224.17118981 718.40110083 212.75 718.625 C211.11847108 718.66328205 209.48696016 718.70233926 207.85546875 718.7421875 C203.90379604 718.83704609 199.95202953 718.92147017 196 719 C196 719.33 196 719.66 196 720 C191.66666667 720 187.33333333 720 183 720 C181.906875 720.020625 180.81375 720.04125 179.6875 720.0625 C176.81893571 720.01388027 174.68935577 719.86059385 172 719 C172 719.33 172 719.66 172 720 C168.37 720 164.74 720 161 720 C161 719.67 161 719.34 161 719 C156.71 719 152.42 719 148 719 C148 719.33 148 719.66 148 720 C144.04 720 140.08 720 136 720 C136 719.67 136 719.34 136 719 C121.81 718.67 107.62 718.34 93 718 C92.67 718.66 92.34 719.32 92 720 C91.67 719.67 91.34 719.34 91 719 C91 719.33 91 719.66 91 720 C89.60587891 719.75443359 89.60587891 719.75443359 88.18359375 719.50390625 C83.15270771 718.78520824 78.13383491 718.89243687 73.0625 718.9375 C71.6074707 718.94426758 71.6074707 718.94426758 70.12304688 718.95117188 C67.7486324 718.9628685 65.37434979 718.97925914 63 719 C63 719.33 63 719.66 63 720 C60.69 720 58.38 720 56 720 C56 719.67 56 719.34 56 719 C21.35 719 -13.3 719 -49 719 C-49 719.33 -49 719.66 -49 720 C-50.98 720 -52.96 720 -55 720 C-55 719.67 -55 719.34 -55 719 C-61.93 719 -68.86 719 -76 719 C-76 719.33 -76 719.66 -76 720 C-79.63 720 -83.26 720 -87 720 C-87 719.67 -87 719.34 -87 719 C-107.13 719 -127.26 719 -148 719 C-148 719.33 -148 719.66 -148 720 C-150.31 720 -152.62 720 -155 720 C-155 719.34 -155 718.68 -155 718 C-155.63415833 718.01474869 -156.26831665 718.02949738 -156.92169189 718.04469299 C-211.10357101 719.2902014 -211.10357101 719.2902014 -232.875 718.6875 C-233.58805298 718.67034943 -234.30110596 718.65319885 -235.0357666 718.63552856 C-243.20118517 718.42710519 -251.01612171 717.7604462 -259 716 C-259.33 716.66 -259.66 717.32 -260 718 C-262 716 -262 716 -263 714 C-263.88558594 713.85433594 -264.77117187 713.70867188 -265.68359375 713.55859375 C-277.19398696 711.6198585 -291.13487786 701.55884564 -297.96875 692.09375 C-299.74785925 689.48219064 -301.43000177 686.82313024 -303.07421875 684.125 C-304.81471407 681.03127919 -304.81471407 681.03127919 -307 679 C-307.33 678.34 -307.66 677.68 -308 677 C-308.66 677 -309.32 677 -310 677 C-309.94199219 675.49373047 -309.94199219 675.49373047 -309.8828125 673.95703125 C-310.0036849 669.87557307 -310.72484155 666.59552014 -311.875 662.6875 C-312.39707031 660.86798828 -312.39707031 660.86798828 -312.9296875 659.01171875 C-313.78117512 655.93249325 -313.78117512 655.93249325 -316 654 C-316.39764263 652.01178687 -316.73775349 650.01055661 -317 648 C-316.34 648 -315.68 648 -315 648 C-315.28282126 640.86398354 -315.28282126 640.86398354 -319 635 C-318.34 635 -317.68 635 -317 635 C-316.3185177 633.10820797 -316.3185177 633.10820797 -316 631 C-316.66 630.34 -317.32 629.68 -318 629 C-318.125 626.375 -318.125 626.375 -318 624 C-319.1936467 624.00222061 -320.3872934 624.00444122 -321.61711121 624.00672913 C-332.95671589 624.02714585 -344.29631677 624.04206038 -355.63593578 624.05181217 C-361.46343448 624.05699444 -367.29091815 624.06400573 -373.1184082 624.07543945 C-378.75946001 624.08643604 -384.40049751 624.09231173 -390.04155922 624.09487724 C-392.17613258 624.09670168 -394.31070531 624.10026292 -396.44527245 624.10573006 C-410.32903578 624.13982214 -424.13822971 623.79373239 -438 623 C-438 622.34 -438 621.68 -438 621 C-439.03125 620.979375 -440.0625 620.95875 -441.125 620.9375 C-450.24691739 619.80131812 -459.57802015 613.90159264 -466.44921875 608.06640625 C-468.09831424 606.71669155 -468.09831424 606.71669155 -471 607 C-471.0825 606.4225 -471.165 605.845 -471.25 605.25 C-472.20578526 602.38264421 -473.85084743 601.08199155 -476 599 C-476.495 597.515 -476.495 597.515 -477 596 C-478.0013436 593.92796768 -479.02450034 591.86641423 -480.0625 589.8125 C-480.88427734 588.18248047 -480.88427734 588.18248047 -481.72265625 586.51953125 C-482.35494141 585.27236328 -482.35494141 585.27236328 -483 584 C-483.66 584 -484.32 584 -485 584 C-487.59232318 580.18776003 -486.68126656 577.39038448 -486 573 C-486.32546598 570.99870467 -486.65969914 568.99882626 -487 567 C-487.0777124 564.83708832 -487.10796236 562.67209527 -487.09765625 560.5078125 C-487.09443359 559.30898438 -487.09121094 558.11015625 -487.08789062 556.875 C-487.07532227 555.01875 -487.07532227 555.01875 -487.0625 553.125 C-487.05798828 551.86429688 -487.05347656 550.60359375 -487.04882812 549.3046875 C-487.0370796 546.20307614 -487.02065167 543.10156275 -487 540 C-487.66 539.67 -488.32 539.34 -489 539 C-488.34 539 -487.68 539 -487 539 C-487.03029297 538.27111572 -487.06058594 537.54223145 -487.09179688 536.79125977 C-487.9806038 515.08898753 -488.08134744 493.69309497 -487 472 C-486.34 472 -485.68 472 -485 472 C-485.66 471.34 -486.32 470.68 -487 470 C-487.25 467 -487.25 467 -487 464 C-486.34 463.34 -485.68 462.68 -485 462 C-484.835 460.989375 -484.67 459.97875 -484.5 458.9375 C-484.335 457.968125 -484.17 456.99875 -484 456 C-483.34 455.67 -482.68 455.34 -482 455 C-481.1202433 452.56148051 -481.1202433 452.56148051 -480.4375 449.6875 C-480.06431641 448.23923828 -480.06431641 448.23923828 -479.68359375 446.76171875 C-479.34521484 445.39466797 -479.34521484 445.39466797 -479 444 C-478.80535156 443.22269531 -478.61070312 442.44539063 -478.41015625 441.64453125 C-478.27480469 441.10183594 -478.13945312 440.55914063 -478 440 C-477.67 440.33 -477.34 440.66 -477 441 C-476.50371094 439.97261719 -476.00742187 438.94523437 -475.49609375 437.88671875 C-456.75351335 399.46652228 -424.53268102 372.49810313 -384.2890625 358.43359375 C-380.13536191 357.02329707 -375.95929537 355.71693323 -371.71484375 354.60546875 C-369.76981206 354.0573774 -369.76981206 354.0573774 -368 352 C-368 352.66 -368 353.32 -368 354 C-359.09 352.02 -359.09 352.02 -350 350 C-350 349.34 -350 348.68 -350 348 C-352.07800452 346.56511513 -354.15402864 345.24115878 -356.3125 343.9375 C-362.13315014 340.32994039 -367.33177463 336.45135899 -372.5 331.9453125 C-375.00114605 329.86777457 -375.00114605 329.86777457 -378.21875 328.390625 C-381.57488958 326.71255521 -382.16874221 325.20470113 -384 322 C-385.99665598 320.32932867 -387.99651034 318.66247014 -390 317 C-390.66666667 315.66666667 -391.33333333 314.33333333 -392 313 C-393.44500776 311.16015141 -394.92789784 309.34973015 -396.4375 307.5625 C-399.30805496 304.16228745 -401.7460316 300.83108915 -404 297 C-404.66 296.34 -405.32 295.68 -406 295 C-417 276.41935484 -417 276.41935484 -417 272 C-417.99 272 -418.98 272 -420 272 C-420.061875 270.9275 -420.12375 269.855 -420.1875 268.75 C-420.96458597 262.37332395 -423.40634906 254.59365094 -428 250 C-427.96621278 248.1079158 -427.92933696 246.21582434 -427.875 244.32421875 C-428.01307664 241.75685618 -428.6125088 239.74384427 -429.4375 237.3125 C-432.95857813 226.46502881 -432.18645476 214.39717539 -432.18530273 203.09008789 C-432.18748751 200.70115267 -432.20571837 198.31268221 -432.22460938 195.92382812 C-432.25559006 186.8425132 -431.70365829 178.11787906 -430.33325195 169.13598633 C-429.77809434 165.97453945 -429.77809434 165.97453945 -431 163 C-430.34 162.01 -429.68 161.02 -429 160 C-427.35248591 155.85420635 -425.88133825 151.67966039 -424.4921875 147.44140625 C-420.7110408 135.94667338 -416.10155431 125.44845037 -410 115 C-409.43667969 114.030625 -408.87335938 113.06125 -408.29296875 112.0625 C-401.90843802 101.62355925 -394.57087395 90.19335355 -384.89453125 82.546875 C-382.73689604 80.78517697 -380.90913432 78.84028108 -379 76.8125 C-370.14008885 67.89190453 -359.65934242 60.76139701 -348.875 54.375 C-348.17697266 53.9612915 -347.47894531 53.54758301 -346.75976562 53.12133789 C-342.91189135 50.90825144 -339.22640103 49.40023621 -335 48 C-334.67 47.34 -334.34 46.68 -334 46 C-331.18494497 45.1091598 -328.34118892 44.46234376 -325.46875 43.78125 C-324.6540625 43.5234375 -323.839375 43.265625 -323 43 C-322.67 42.34 -322.34 41.68 -322 41 C-319.61978411 40.25201867 -317.29963969 39.62747276 -314.875 39.0625 C-314.16158447 38.89065186 -313.44816895 38.71880371 -312.71313477 38.54174805 C-299.30143581 35.35903565 -286.10413851 32.96297779 -272.3125 32.4375 C-270.79366211 32.37272461 -270.79366211 32.37272461 -269.24414062 32.30664062 C-262.15964318 32.0225392 -255.08972116 31.95025588 -248 32 C-248 32.66 -248 33.32 -248 34 C-242.06 34.33 -236.12 34.66 -230 35 C-230 35.66 -230 36.32 -230 37 C-228.85273438 37.11085937 -227.70546875 37.22171875 -226.5234375 37.3359375 C-222.01356417 37.89842941 -217.91319489 39.16073833 -213.625 40.625 C-211.09031282 41.48982975 -208.58127269 42.27346329 -206 43 C-205.34 42.67 -204.68 42.34 -204 42 C-204 42.99 -204 43.98 -204 45 C-203.46922852 45.15710449 -202.93845703 45.31420898 -202.39160156 45.47607422 C-196.15572723 47.42529221 -190.5136096 50.06711589 -184.75 53.125 C-183.83774658 53.60493408 -182.92549316 54.08486816 -181.9855957 54.5793457 C-174.58438442 58.54187457 -167.71074951 62.95760009 -161 68 C-156.10843262 65.74155293 -152.9816821 62.47252315 -150 58 C-147.875 57.3125 -147.875 57.3125 -146 57 C-146 56.34 -146 55.68 -146 55 C-144.67749023 53.73828125 -144.67749023 53.73828125 -142.80859375 52.3125 C-141.77460449 51.51948486 -141.77460449 51.51948486 -140.71972656 50.71044922 C-139.9665918 50.14600098 -139.21345703 49.58155273 -138.4375 49 C-137.66245117 48.41621582 -136.88740234 47.83243164 -136.08886719 47.23095703 C-118.7293034 34.2591702 -100.50606956 23.2735204 -80 16 C-78.47762412 15.33686339 -76.95675358 14.67025893 -75.4375 14 C-70.30210751 11.92199707 -64.98676816 10.60177846 -59.625 9.25 C-58.74384521 9.02699219 -57.86269043 8.80398437 -56.95483398 8.57421875 C-53.11781291 7.63625569 -49.98906264 7 -46 7 C-45.67 6.01 -45.34 5.02 -45 4 C-45 4.66 -45 5.32 -45 6 C-43.02 6 -41.04 6 -39 6 C-39 5.01 -39 4.02 -39 3 C-37.88625 3.185625 -36.7725 3.37125 -35.625 3.5625 C-32.17431139 4.31680657 -32.17431139 4.31680657 -30 3 C-27.82175039 2.91440882 -25.64084745 2.89286588 -23.4609375 2.90234375 C-22.15898437 2.90556641 -20.85703125 2.90878906 -19.515625 2.91210938 C-18.13541601 2.92046534 -16.75520768 2.92893029 -15.375 2.9375 C-13.98698074 2.94251499 -12.59895978 2.9470779 -11.2109375 2.95117188 C-7.80724868 2.96299024 -4.40364561 2.97946566 -1 3 C-0.67 2.01 -0.34 1.02 0 0 Z M-427 247 C-426 249 -426 249 -426 249 Z M-484 459 C-483 462 -483 462 -483 462 Z M-309 673 C-308 675 -308 675 -308 675 Z " fill="#030301" transform="translate(519,152)"/>
<path d="M0 0 C17.3055878 5.15175737 35.41943215 8.25960724 53.5 8.75 C54.14710938 8.77046387 54.79421875 8.79092773 55.4609375 8.81201172 C79.98219251 9.50138715 104.51245458 6.27274922 127.9375 -1.0625 C137.90197803 -4.1421967 145.5179257 -3.35887182 155.65576172 -1.52490234 C162.76138867 -0.27365992 169.88408268 0.43021949 177.0625 1.125 C205.04045306 3.94884414 231.22527925 10.36867486 256.5 22.75 C257.19496582 23.08789551 257.88993164 23.42579102 258.60595703 23.77392578 C295.41826448 41.88677232 325.34242701 74.17783686 339.5 112.75 C346.70938782 133.9946854 348.65341928 155.69146279 348.703125 177.98046875 C348.70595238 178.8440481 348.70877975 179.70762745 348.71169281 180.59737587 C348.72659841 185.16754069 348.73588236 189.73767465 348.74023438 194.30786133 C348.74570736 198.97955779 348.76973573 203.65096114 348.79820633 208.32256603 C348.8170056 211.95956705 348.8220474 215.59649984 348.82357025 219.2335453 C348.8265583 220.95360224 348.83445289 222.67365913 348.84775543 224.39366722 C348.98770662 243.87847742 347.05012485 261.74846687 332.91796875 276.49609375 C326.25720039 282.70491983 319.15224717 286.92663514 310.5 289.75 C309.95996664 289.92715943 309.41993329 290.10431886 308.86353528 290.28684676 C305.40567532 290.96444149 301.96628822 290.8925077 298.45687294 290.88701439 C297.6359023 290.88966622 296.81493167 290.89231804 295.96908313 290.89505023 C293.20029407 290.90274914 290.43154931 290.90330263 287.66275024 290.90390015 C285.66462187 290.90791439 283.66649432 290.91235255 281.66836774 290.9171797 C276.16326945 290.92915554 270.65817993 290.93479601 265.15307117 290.93936086 C259.22097876 290.94531321 253.28889685 290.95692407 247.35681152 290.96765137 C233.7000644 290.99102527 220.0433131 291.00558448 206.38655249 291.01788078 C201.66041499 291.02213628 196.93427787 291.02670203 192.20814085 291.0314641 C167.07118101 291.05672757 141.9342205 291.0787725 116.79725075 291.09119225 C110.97339501 291.09411351 105.14953929 291.09708104 99.32568359 291.10009766 C98.24038653 291.10065402 98.24038653 291.10065402 97.13316427 291.10122162 C73.68583718 291.11337134 50.23858526 291.14430565 26.79129346 291.18601918 C2.6797611 291.22883605 -21.43173157 291.25543705 -45.54330296 291.26066696 C-48.95120781 291.26140737 -52.35911259 291.26231805 -55.76701736 291.26332474 C-56.77303918 291.26361066 -56.77303918 291.26361066 -57.79938467 291.26390236 C-67.91190247 291.2671944 -78.02433545 291.28446344 -88.13682175 291.30921555 C-99.64710231 291.33722733 -111.15724004 291.34821037 -122.66755204 291.33702008 C-128.53865093 291.33183627 -134.40945076 291.33470274 -140.28050613 291.35948563 C-145.66104342 291.38200793 -151.04106731 291.38121464 -156.42161377 291.36228175 C-158.36251813 291.35948596 -160.30345753 291.36505673 -162.24430566 291.38009469 C-179.86561945 291.50821925 -193.1547176 288.24110091 -206.5234375 275.87890625 C-220.60466018 261.09054793 -220.97034646 242.16476578 -220.93359375 223.03515625 C-220.93816768 220.93167454 -220.94347681 218.82819431 -220.94947815 216.72471619 C-220.95837399 212.3280529 -220.95602994 207.93157155 -220.94604492 203.53491211 C-220.93461357 197.9647072 -220.95469549 192.39514181 -220.98396206 186.82502079 C-221.0025274 182.48089249 -221.00199077 178.13691134 -220.99632454 173.79275322 C-220.99617351 171.74273221 -221.00203239 169.69269976 -221.01461601 167.64271736 C-221.10893944 149.74775399 -219.34054441 131.89609259 -213.25 114.9375 C-212.8017688 113.6529895 -212.8017688 113.6529895 -212.34448242 112.3425293 C-204.91145837 91.58052714 -194.03337042 73.45988599 -178.5 57.75 C-177.613125 56.7909375 -176.72625 55.831875 -175.8125 54.84375 C-143.14729019 19.95633875 -95.35109601 5.69978354 -49.1875 0.6875 C-46.27420148 0.36794787 -43.36145548 0.04393276 -40.44921875 -0.28515625 C-39.75351776 -0.36311432 -39.05781677 -0.44107239 -38.34103394 -0.52139282 C-34.38053187 -0.98072467 -30.4909938 -1.59039984 -26.58203125 -2.37109375 C-16.88094141 -4.19545606 -9.34447402 -2.94962759 0 0 Z " fill="#FEC922" transform="translate(447.5,556.25)"/>
<path d="M0 0 C0.80677185 0.00432037 1.6135437 0.00864075 2.44476318 0.01309204 C14.37626927 0.08786859 25.91720421 0.57958356 37.5625 3.375 C38.32014648 3.54660645 39.07779297 3.71821289 39.85839844 3.89501953 C64.5203572 9.54777083 88.08115495 19.36310505 108.5625 34.375 C110.1403125 35.52742188 110.1403125 35.52742188 111.75 36.703125 C119.47845965 42.45262366 126.59021786 48.73801855 133.5625 55.375 C134.31917969 56.06722656 135.07585937 56.75945312 135.85546875 57.47265625 C164.58316019 84.63052849 184.11980901 126.81703897 185.72363281 166.34643555 C185.74313644 167.73479685 185.75691285 169.12324779 185.765625 170.51171875 C185.77268463 171.26486862 185.77974426 172.01801849 185.78701782 172.79399109 C186.13643145 221.06303294 174.47457948 266.75248111 141.5625 303.375 C140.75425781 304.2928125 139.94601562 305.210625 139.11328125 306.15625 C132.47491874 313.63990485 125.72654532 320.56583912 117.75 326.625 C117.01861816 327.18074707 116.28723633 327.73649414 115.53369141 328.30908203 C82.56001608 352.93587932 44.7254571 364.59457684 3.8125 364.625 C2.99435822 364.62567474 2.17621643 364.62634949 1.33328247 364.62704468 C-46.28937575 364.56486728 -90.72611026 349.81257728 -125.4375 316.375 C-125.97084961 315.86743164 -126.50419922 315.35986328 -127.05371094 314.83691406 C-161.30830902 282.11068622 -181.31703223 237.14600888 -182.640625 189.640625 C-183.31881858 137.74593905 -165.68435429 91.78668802 -129.75219727 54.40649414 C-96.00636638 20.05308641 -48.15995461 -0.49303496 0 0 Z " fill="#FEC922" transform="translate(508.4375,178.625)"/>
<path d="M0 0 C0.75342682 -0.01257339 1.50685364 -0.02514679 2.28311157 -0.0381012 C19.14873311 -0.26486822 34.90331295 -0.02259301 51.09375 5.2734375 C51.89828613 5.52512695 52.70282227 5.77681641 53.53173828 6.03613281 C75.99260395 13.18011689 96.0840438 24.968943 113.09375 41.2734375 C113.90199219 42.01851562 114.71023438 42.76359375 115.54296875 43.53125 C137.15056441 64.08729862 149.17949512 91.46529276 155.09375 120.2734375 C155.35526855 121.37534424 155.35526855 121.37534424 155.62207031 122.49951172 C156.22820352 126.06415223 156.31372001 129.58940793 156.3671875 133.1953125 C156.37980621 133.96410233 156.39242493 134.73289215 156.40542603 135.52497864 C157.00065555 180.62734916 144.78730103 218.45913526 113.09375 251.2734375 C112.55153809 251.83756348 112.00932617 252.40168945 111.45068359 252.98291016 C87.31583226 277.65723847 52.37120797 291.19494019 18.09375 292.2734375 C16.97613281 292.31339844 15.85851562 292.35335938 14.70703125 292.39453125 C-13.88593801 292.91108861 -50.56542673 286.22172149 -72.34765625 266.0078125 C-72.86199219 265.43546875 -73.37632812 264.863125 -73.90625 264.2734375 C-73.08833984 262.99726562 -73.08833984 262.99726562 -72.25390625 261.6953125 C-62.15745912 245.61151626 -54.96282915 228.55675362 -49.90625 210.2734375 C-49.71192383 209.5825 -49.51759766 208.8915625 -49.31738281 208.1796875 C-35.29170625 157.2662368 -41.91557746 100.55970317 -67.453125 54.40625 C-70.46741593 49.1799794 -73.90334959 44.23568658 -77.45239258 39.36035156 C-80.90625 34.57057399 -80.90625 34.57057399 -80.90625 31.2734375 C-78.79301404 29.56931418 -76.74456041 28.10763026 -74.46875 26.6484375 C-73.79424805 26.21039795 -73.11974609 25.7723584 -72.42480469 25.32104492 C-51.05586813 11.67685612 -25.73887192 0.39089195 0 0 Z " fill="#BBBBB9" transform="translate(757.90625,207.7265625)"/>
<path d="M0 0 C0.73460449 0.20367187 1.46920898 0.40734375 2.22607422 0.6171875 C21.20586635 5.98203169 38.63614754 15.12162566 55 26 C54.40974333 30.16232722 51.98876696 33.09952305 49.625 36.4375 C33.60590165 59.94071645 23.90141598 86.06410248 19 114 C18.87012695 114.69303223 18.74025391 115.38606445 18.60644531 116.10009766 C10.47495227 160.86886399 19.10283188 216.07552566 44 254.375 C44.5775 255.20773437 45.155 256.04046875 45.75 256.8984375 C47 259 47 259 47 262 C45.57324219 263.22338867 45.57324219 263.22338867 43.546875 264.41796875 C42.79237061 264.86390381 42.03786621 265.30983887 41.26049805 265.76928711 C40.01780151 266.47130249 40.01780151 266.47130249 38.75 267.1875 C37.89897705 267.6729126 37.0479541 268.1583252 36.17114258 268.65844727 C2.27725693 287.49320971 -36.54519194 293.28055697 -74.04589844 283.09228516 C-112.33787623 272.13491257 -142.37391684 246.88202532 -161.75463867 212.29663086 C-180.80301709 176.99777502 -184.02336613 134.32980049 -172.66455078 96.14501953 C-171.05933999 90.96376237 -169.17844865 85.96585844 -167 81 C-166.52175781 79.90816406 -166.04351562 78.81632812 -165.55078125 77.69140625 C-158.52160076 62.69695585 -148.5196445 49.80018379 -137 38 C-136.28714844 37.22527344 -135.57429688 36.45054687 -134.83984375 35.65234375 C-114.66698775 14.27288702 -87.1906576 2.96071118 -59 -3 C-58.23002686 -3.18030762 -57.46005371 -3.36061523 -56.66674805 -3.54638672 C-38.74940153 -6.59412359 -17.34559379 -5.04599092 0 0 Z " fill="#DB8235" transform="translate(289,212)"/>
<path d="M0 0 C3.72411247 1.29319276 6.82979884 3.10317612 10.11035156 5.27441406 C46.61465415 29.36104493 89.45529313 35.0089874 132 28 C133.53949326 27.64575237 135.07626503 27.2793636 136.609375 26.8984375 C144.61786051 25.04088027 152.35206618 25.96171359 160.27734375 27.7578125 C161.5535836 28.03611404 161.5535836 28.03611404 162.85560608 28.32003784 C164.64745642 28.7134795 166.43818132 29.11207939 168.2277832 29.515625 C170.89697245 30.11588596 173.56995413 30.69590207 176.24414062 31.2734375 C215.49890845 39.89677787 256.86213701 55.50462301 279.83325195 90.64379883 C286.69074075 101.49317299 292.23206582 112.52525214 295.8125 124.875 C296.00755127 125.53290527 296.20260254 126.19081055 296.40356445 126.86865234 C299.9593381 140.1098703 300.31564973 154.03801672 300.30078125 167.6640625 C300.30468758 169.19566967 300.30902605 170.7272758 300.31376648 172.25888062 C300.32114252 175.43694608 300.32099951 178.61490025 300.31567383 181.79296875 C300.30986581 185.8211852 300.32688458 189.84894384 300.3500185 193.87708473 C300.36489578 197.0293738 300.36560917 200.18155578 300.36250877 203.33387375 C300.36301417 204.8175078 300.36810054 206.30114914 300.37832069 207.78474808 C300.46916858 222.79876483 299.50360594 238.6775283 288.890625 250.3125 C278.5414766 260.01928747 267.94162874 262.31824064 254.07617188 262.22705078 C252.31877686 262.22748886 252.31877686 262.22748886 250.52587891 262.22793579 C246.6734259 262.22654825 242.821169 262.2110139 238.96875 262.1953125 C236.2897509 262.19158033 233.61076251 262.18863587 230.9317627 262.18673706 C224.61378708 262.18053839 218.29588125 262.16414958 211.97793627 262.14403808 C204.78079959 262.12162866 197.58365946 262.11067301 190.38649654 262.10064721 C175.59096212 262.07978179 160.79548228 262.04463742 146 262 C145.97363464 260.93611053 145.94726929 259.87222107 145.92010498 258.77609253 C145.82044929 254.78042415 145.71764549 250.7848416 145.61395264 246.78927612 C145.56973523 245.06904202 145.52634028 243.34878655 145.48382568 241.62850952 C144.14716042 187.67387913 128.33534474 139.71820852 88.71899414 101.80859375 C50.37414033 66.01921383 -0.00056501 51.61922709 -51 46 C-47.87223519 43.43616304 -44.67343047 41.04889748 -41.34423828 38.75341797 C-25.58511825 27.83706075 -11.91464501 15.00362705 0 0 Z " fill="#BBBBB9" transform="translate(671,490)"/>
<path d="M0 0 C1.32691027 1.51516756 2.58483832 3.09085652 3.8125 4.6875 C15.87908691 19.70326869 30.23931318 31.51070327 46.37841797 41.91674805 C47.93357061 42.9222311 49.46910195 43.95796015 51 45 C51 45.33 51 45.66 51 46 C49.94425781 46.15033691 48.88851563 46.30067383 47.80078125 46.45556641 C5.4480266 52.53044634 -34.72743938 61.27117174 -70 87 C-70.54382324 87.38978027 -71.08764648 87.77956055 -71.64794922 88.18115234 C-84.94414671 97.7638179 -97.14070031 108.87791048 -107 122 C-107.89053376 123.15111226 -108.78116418 124.30214974 -109.671875 125.453125 C-132.83485109 155.7793691 -143.59834955 192.5078393 -144.31640625 230.48046875 C-144.3475779 231.88876701 -144.3475779 231.88876701 -144.37937927 233.32551575 C-144.44396047 236.27944727 -144.50332734 239.23345571 -144.5625 242.1875 C-144.60577253 244.20899184 -144.64938935 246.23047634 -144.69335938 248.25195312 C-144.7995458 253.16789305 -144.90106101 258.08390909 -145 263 C-159.39572167 263.04687706 -173.79143137 263.08193211 -188.1872139 263.10362434 C-194.87255863 263.11390396 -201.55784872 263.12815367 -208.24316406 263.15087891 C-214.70114393 263.17269269 -221.15907444 263.18458661 -227.61708832 263.18975449 C-230.07449876 263.19343495 -232.53190666 263.20062179 -234.98929596 263.21146011 C-238.44507068 263.22608845 -241.90064436 263.22797321 -245.35644531 263.22705078 C-246.36058472 263.23424133 -247.36472412 263.24143188 -248.39929199 263.24884033 C-261.75724142 263.21054008 -274.60927831 261.10286851 -284.875 251.875 C-296.4616276 238.95690174 -296.31747014 222.32480745 -296.30078125 205.95703125 C-296.30468306 204.33721307 -296.30902069 202.71739588 -296.31376648 201.09757996 C-296.32117609 197.71988597 -296.32097688 194.34229658 -296.31567383 190.96459961 C-296.30989892 186.68995169 -296.32678811 182.41573987 -296.3500185 178.14116383 C-296.36493587 174.79916487 -296.36560325 171.45726647 -296.36250877 168.1152401 C-296.36301343 166.54198026 -296.36808492 164.96871345 -296.37832069 163.39548683 C-296.57572607 128.80952097 -285.05836539 98.96229241 -261 74 C-259.94039062 72.82824219 -259.94039062 72.82824219 -258.859375 71.6328125 C-235.39193806 46.46353853 -200.24193563 36.92377577 -167.8125 29.9375 C-166.42609818 29.63717361 -166.42609818 29.63717361 -165.01168823 29.33078003 C-162.34991732 28.75966268 -159.68564307 28.20280687 -157.01953125 27.65234375 C-156.2277951 27.48408081 -155.43605896 27.31581787 -154.62033081 27.14245605 C-147.96172306 25.80466983 -141.68999495 25.44196879 -134.9765625 26.83984375 C-134.1 27.01580078 -133.2234375 27.19175781 -132.3203125 27.37304688 C-131.43085938 27.55931641 -130.54140625 27.74558594 -129.625 27.9375 C-88.45415657 36.45456776 -45.08414157 27.70718659 -9.66650391 5.09545898 C-7.93692494 3.95690681 -6.22734051 2.78814094 -4.51953125 1.6171875 C-2 0 -2 0 0 0 Z " fill="#DB8235" transform="translate(350,490)"/>
<path d="M0 0 C0.33 0 0.66 0 1 0 C0.67 17.49 0.34 34.98 0 53 C-27.79094833 53.08021762 -27.79094833 53.08021762 -39.6171875 53.09765625 C-47.6937118 53.10962198 -55.77019118 53.12349505 -63.84667969 53.15087891 C-70.35648677 53.17294031 -76.86626355 53.18456176 -83.37610626 53.18975449 C-85.86245742 53.19345611 -88.34880585 53.20068425 -90.83513641 53.21146011 C-94.31169926 53.22593141 -97.78806042 53.22797975 -101.26464844 53.22705078 C-102.29755005 53.23424133 -103.33045166 53.24143188 -104.39465332 53.24884033 C-105.34253723 53.246091 -106.29042114 53.24334167 -107.26702881 53.24050903 C-108.50038782 53.24327441 -108.50038782 53.24327441 -109.75866318 53.24609566 C-112 53 -112 53 -116 51 C-78.38 51 -40.76 51 -2 51 C-2 40.44 -2 29.88 -2 19 C-1 5 -1 5 0 0 Z " fill="#D79840" transform="translate(205,700)"/>
<path d="M0 0 C38.61 0 77.22 0 117 0 C117 7.26 117 14.52 117 22 C116.67 22 116.34 22 116 22 C115.71125 21.071875 115.4225 20.14375 115.125 19.1875 C114.1125 15.90208333 114.1125 15.90208333 112 13 C112.66 13 113.32 13 114 13 C114.6814823 11.10820797 114.6814823 11.10820797 115 9 C114.01 8.01 114.01 8.01 113 7 C112.875 4.375 112.875 4.375 113 2 C111.79080902 2.00222061 110.58161804 2.00444122 109.33578491 2.00672913 C97.89098639 2.02707877 86.44619158 2.04202881 75.00137901 2.05181217 C69.11875016 2.05701111 63.23613602 2.06405393 57.35351562 2.07543945 C51.66710899 2.08637523 45.98071643 2.09229931 40.29430008 2.09487724 C38.13440352 2.09671235 35.97450766 2.10029549 33.81461716 2.10573006 C22.49464856 2.13305694 11.27917111 2.07789882 0 1 C0 0.67 0 0.34 0 0 Z " fill="#553D27" transform="translate(88,774)"/>
<path d="M0 0 C1 2 1 2 0.42675781 4.22387695 C-0.05519043 5.59225708 -0.05519043 5.59225708 -0.546875 6.98828125 C-0.89613037 7.99834229 -1.24538574 9.00840332 -1.60522461 10.04907227 C-1.98300049 11.12600342 -2.36077637 12.20293457 -2.75 13.3125 C-7.02796925 25.86939702 -10.19637535 37.36615082 -10.7890625 50.6875 C-11 54 -11 54 -11.4934082 56.23901367 C-12.12356523 59.67344537 -12.21906 62.99772297 -12.31640625 66.48828125 C-12.33718735 67.19147995 -12.35796844 67.89467865 -12.37937927 68.6191864 C-12.44440115 70.85019817 -12.50353776 73.08132069 -12.5625 75.3125 C-12.60573036 76.83139134 -12.64934605 78.35027177 -12.69335938 79.86914062 C-12.80003334 83.5793112 -12.90143221 87.28960421 -13 91 C-13.33 91 -13.66 91 -14 91 C-19.97042388 62.83308091 -12.89083374 26.86611643 -1 1 C-0.67 0.67 -0.34 0.34 0 0 Z " fill="#F3E543" transform="translate(341,289)"/>
<path d="M0 0 C0.66 0.33 1.32 0.66 2 1 C-0.97 4.96 -0.97 4.96 -4 9 C-2.04848373 10.95151627 1.45168745 10.70968749 4.0625 11.0625 C5.35285156 11.23910156 6.64320313 11.41570313 7.97265625 11.59765625 C8.97167969 11.73042969 9.97070312 11.86320313 11 12 C11 12.33 11 12.66 11 13 C1.59654945 14.29582 -6.70505737 13.5364591 -16 12 C-12.47169239 9.13607206 -8.87015083 6.41215722 -5.1875 3.75 C-4.21167969 3.04359375 -3.23585938 2.3371875 -2.23046875 1.609375 C-1.49441406 1.07828125 -0.75835938 0.5471875 0 0 Z " fill="#C7C7C4" transform="translate(636,524)"/>
<path d="M0 0 C1.53059302 0.01006222 3.06119254 0.01918227 4.59179688 0.02734375 C8.2905027 0.04907212 11.98895769 0.08341819 15.6875 0.125 C15.6875 0.455 15.6875 0.785 15.6875 1.125 C14.97730713 1.14481934 14.26711426 1.16463867 13.53540039 1.18505859 C10.2732696 1.28115196 7.01170672 1.3904855 3.75 1.5 C2.07454102 1.54640625 2.07454102 1.54640625 0.36523438 1.59375 C-6.89061448 1.84908779 -13.46628566 2.78126432 -20.44506836 4.71630859 C-22.74228311 5.21905895 -24.04052943 4.709221 -26.3125 4.125 C-28.64550933 4.08611651 -30.97959801 4.0801365 -33.3125 4.125 C-24.34879748 -1.85080168 -10.45401355 -0.12117282 0 0 Z " fill="#F5E83F" transform="translate(507.3125,178.875)"/>
<path d="M0 0 C9.31440136 0.41837737 18.60063678 0.95974064 27.875 1.9375 C28.62894043 2.01210449 29.38288086 2.08670898 30.15966797 2.16357422 C33.80940565 2.56983912 36.85619481 3.03306429 40 5 C38.35492782 5.19406478 36.70890406 5.38007935 35.0625 5.5625 C33.68771484 5.71912109 33.68771484 5.71912109 32.28515625 5.87890625 C31.53105469 5.91886719 30.77695312 5.95882812 30 6 C29.67 5.67 29.34 5.34 29 5 C26.86037572 4.62943793 24.71077652 4.31616481 22.55859375 4.02734375 C21.25341797 3.85009766 19.94824219 3.67285156 18.60351562 3.49023438 C17.21485577 3.305899 15.82618373 3.1216554 14.4375 2.9375 C13.04486976 2.74973508 11.65229086 2.56158899 10.25976562 2.37304688 C6.84033189 1.9116008 3.42041591 1.45409895 0 1 C0 0.67 0 0.34 0 0 Z " fill="#F9EE47" transform="translate(603,556)"/>
<path d="M0 0 C1.3715668 4.1147004 0.04072288 5.51231062 -1.8125 9.375 C-4.91659599 16.11506861 -6.28627845 22.59206249 -7 30 C-7.66 30 -8.32 30 -9 30 C-9.33 30.66 -9.66 31.32 -10 32 C-9.70924933 20.52856445 -5.39770023 9.99574117 0 0 Z " fill="#EBA948" transform="translate(67,594)"/>
<path d="M0 0 C13.07630717 -0.83024173 25.97277757 3.11637621 38 8 C33.86426157 9.37857948 30.92240504 7.92101956 26.9375 6.625 C19.56778507 4.33297966 12.74127641 3 5 3 C5 2.34 5 1.68 5 1 C3.35 1 1.7 1 0 1 C0 0.67 0 0.34 0 0 Z " fill="#F1F1EF" transform="translate(782,209)"/>
<path d="M0 0 C1.47583955 0.0001591 2.95168467 0.00585225 4.42749023 0.01586914 C5.20293686 0.01728409 5.97838348 0.01869904 6.77732849 0.02015686 C9.26361893 0.02577194 11.74982059 0.03832693 14.23608398 0.05102539 C15.91772331 0.05603845 17.59936405 0.06060169 19.28100586 0.06469727 C23.41189965 0.07574626 27.54272674 0.09302094 31.67358398 0.11352539 C32.16858398 1.10352539 32.16858398 1.10352539 32.67358398 2.11352539 C17.82358398 2.44352539 2.97358398 2.77352539 -12.32641602 3.11352539 C-12.32641602 2.78352539 -12.32641602 2.45352539 -12.32641602 2.11352539 C-10.27563477 1.88566081 -8.22485352 1.65779622 -6.17407227 1.42993164 C-3.15514725 0.91294871 -3.64632187 0.12444328 0 0 Z " fill="#2F2B23" transform="translate(755.326416015625,183.886474609375)"/>
<path d="M0 0 C0.33 0 0.66 0 1 0 C1.33 8.91 1.66 17.82 2 27 C1.01 27.33 0.02 27.66 -1 28 C-1.1820896 18.63250185 -0.61326035 9.3412692 0 0 Z " fill="#B0B1AF" transform="translate(912,344)"/>
<path d="M0 0 C0.33 0 0.66 0 1 0 C0.67 6.27 0.34 12.54 0 19 C-3 16 -3 16 -3.36328125 14.0625 C-3.34652344 13.381875 -3.32976562 12.70125 -3.3125 12 C-3.30863281 11.319375 -3.30476562 10.63875 -3.30078125 9.9375 C-3 8 -3 8 -1 5 C-0.61500109 3.34450469 -0.27206865 1.6777567 0 0 Z " fill="#F0C025" transform="translate(230,696)"/>
<path d="M0 0 C1 2 1 2 0.6875 4.0625 C0 6 0 6 -2 7 C-3.10144685 8.98888201 -4.13418595 11.0162536 -5.125 13.0625 C-5.66382813 14.16722656 -6.20265625 15.27195312 -6.7578125 16.41015625 C-7.16773438 17.26480469 -7.57765625 18.11945313 -8 19 C-9 16 -9 16 -7.3828125 12.4609375 C-6.64047576 11.09333505 -5.88740383 9.73151785 -5.125 8.375 C-4.55845703 7.33472656 -4.55845703 7.33472656 -3.98046875 6.2734375 C-1.19118642 1.19118642 -1.19118642 1.19118642 0 0 Z " fill="#F3E742" transform="translate(351,269)"/>
<path d="M0 0 C0.66 0.33 1.32 0.66 2 1 C1.09515208 2.15518918 0.1755794 3.29885406 -0.75 4.4375 C-1.26046875 5.07558594 -1.7709375 5.71367188 -2.296875 6.37109375 C-4.23653373 8.22622607 -5.39352607 8.55361568 -8 9 C-8.99 9.33 -9.98 9.66 -11 10 C-9.73459948 6.20379845 -8.21781569 5.51321812 -4.9375 3.3125 C-4.01839844 2.68988281 -3.09929688 2.06726563 -2.15234375 1.42578125 C-1.44207031 0.95527344 -0.73179687 0.48476563 0 0 Z " fill="#DAD9D8" transform="translate(636,524)"/>
<path d="M0 0 C4.29 0.33 8.58 0.66 13 1 C13.33 1.99 13.66 2.98 14 4 C8.34605369 4.34615998 4.96993194 3.43425238 0 1 C0 0.67 0 0.34 0 0 Z " fill="#CDCDCB" transform="translate(737,519)"/>
<path d="M0 0 C0.33 0.66 0.66 1.32 1 2 C1.66 2 2.32 2 3 2 C3.33 6.29 3.66 10.58 4 15 C0.59141414 11.59141414 0.06991606 6.67798535 -0.125 2 C-0.08375 1.34 -0.0425 0.68 0 0 Z " fill="#EFAC48" transform="translate(114,383)"/>
<path d="M0 0 C-0.99 1.485 -0.99 1.485 -2 3 C-5.0390625 3.29296875 -5.0390625 3.29296875 -8.625 3.1875 C-9.81351563 3.16042969 -11.00203125 3.13335937 -12.2265625 3.10546875 C-13.14179688 3.07066406 -14.05703125 3.03585938 -15 3 C-11.07677056 -0.92322944 -5.25785342 -0.10515707 0 0 Z " fill="#EFAF49" transform="translate(237,209)"/>
<path d="M0 0 C0.8353125 0.37125 0.8353125 0.37125 1.6875 0.75 C-1.2825 3.225 -1.2825 3.225 -4.3125 5.75 C-5.3025 5.09 -6.2925 4.43 -7.3125 3.75 C-2.88173077 -0.31153846 -2.88173077 -0.31153846 0 0 Z " fill="#E3953E" transform="translate(104.3125,552.25)"/>
<path d="M0 0 C1.67542976 0.28604898 3.34385343 0.61781233 5 1 C1.78817851 2.90608098 -0.53882603 3.22266247 -4.25 3.125 C-5.14203125 3.10695312 -6.0340625 3.08890625 -6.953125 3.0703125 C-7.96632813 3.03550781 -7.96632813 3.03550781 -9 3 C-9 2.67 -9 2.34 -9 2 C-6.94921875 1.77213542 -4.8984375 1.54427083 -2.84765625 1.31640625 C-0.98859771 1.18113386 -0.98859771 1.18113386 0 0 Z " fill="#464136" transform="translate(752,184)"/>
<path d="M0 0 C3.3 0 6.6 0 10 0 C9.01 1.485 9.01 1.485 8 3 C7.01 3 6.02 3 5 3 C5 2.34 5 1.68 5 1 C3.35 1 1.7 1 0 1 C0 0.67 0 0.34 0 0 Z " fill="#DEDDDB" transform="translate(782,209)"/>
<path d="M0 0 C4.62 0 9.24 0 14 0 C14 0.33 14 0.66 14 1 C9.38 1 4.76 1 0 1 C0 0.67 0 0.34 0 0 Z " fill="#5B422A" transform="translate(397,871)"/>
<path d="M0 0 C3.3 0 6.6 0 10 0 C10 0.33 10 0.66 10 1 C6.37 1.33 2.74 1.66 -1 2 C-0.67 1.34 -0.34 0.68 0 0 Z " fill="#4E493D" transform="translate(740,184)"/>
<path d="M0 0 C3.63 0 7.26 0 11 0 C11 0.33 11 0.66 11 1 C7.37 1 3.74 1 0 1 C0 0.67 0 0.34 0 0 Z " fill="#5A422B" transform="translate(496,871)"/>
<path d="M0 0 C2.97 0.495 2.97 0.495 6 1 C4.125 2.0625 4.125 2.0625 2 3 C1.34 2.67 0.68 2.34 0 2 C0 1.34 0 0.68 0 0 Z " fill="#4F3B25" transform="translate(263,869)"/>
<path d="M0 0 C2.64 0 5.28 0 8 0 C8 0.33 8 0.66 8 1 C5.36 1 2.72 1 0 1 C0 0.67 0 0.34 0 0 Z " fill="#59422B" transform="translate(620,871)"/>
<path d="M0 0 C1.65 0 3.3 0 5 0 C5 0.66 5 1.32 5 2 C3.35 1.67 1.7 1.34 0 1 C0 0.67 0 0.34 0 0 Z " fill="#4F3924" transform="translate(88,528)"/>
<path d="M0 0 C2.31 0 4.62 0 7 0 C7 0.33 7 0.66 7 1 C4.69 1 2.38 1 0 1 C0 0.67 0 0.34 0 0 Z " fill="#50412E" transform="translate(743,871)"/>
<path d="M0 0 C0.99 0.33 1.98 0.66 3 1 C1.02 1.33 -0.96 1.66 -3 2 C-2.01 1.34 -1.02 0.68 0 0 Z " fill="#523D24" transform="translate(455,160)"/>
<path d="M0 0 C1.98 0 3.96 0 6 0 C6 0.33 6 0.66 6 1 C4.02 1 2.04 1 0 1 C0 0.67 0 0.34 0 0 Z " fill="#58432D" transform="translate(669,871)"/>
<path d="M0 0 C1.98 0 3.96 0 6 0 C6 0.33 6 0.66 6 1 C4.02 1 2.04 1 0 1 C0 0.67 0 0.34 0 0 Z " fill="#5B442C" transform="translate(416,871)"/>
<path d="M0 0 C1.98 0 3.96 0 6 0 C6 0.33 6 0.66 6 1 C4.02 1 2.04 1 0 1 C0 0.67 0 0.34 0 0 Z " fill="#59422B" transform="translate(352,871)"/>
<path d="M0 0 C0.66 1.32 1.32 2.64 2 4 C1.01 3.01 0.02 2.02 -1 1 C-0.67 0.67 -0.34 0.34 0 0 Z " fill="#543D27" transform="translate(97,417)"/>
<path d="M0 0 C0.99 0 1.98 0 3 0 C3 0.66 3 1.32 3 2 C2.01 2 1.02 2 0 2 C0 1.34 0 0.68 0 0 Z " fill="#4E3721" transform="translate(175,200)"/>
<path d="M0 0 C0.99 0.33 1.98 0.66 3 1 C1.35 1.33 -0.3 1.66 -2 2 C-1.34 1.34 -0.68 0.68 0 0 Z " fill="#484437" transform="translate(706,194)"/>
<path d="M0 0 C1.98 0.495 1.98 0.495 4 1 C2.35 1.33 0.7 1.66 -1 2 C-0.67 1.34 -0.34 0.68 0 0 Z " fill="#4A4539" transform="translate(711,192)"/>
<path d="M0 0 C1.98 0.495 1.98 0.495 4 1 C2.35 1.33 0.7 1.66 -1 2 C-0.67 1.34 -0.34 0.68 0 0 Z " fill="#503A24" transform="translate(432,168)"/>
<path d="M0 0 C2.475 0.495 2.475 0.495 5 1 C5 1.33 5 1.66 5 2 C3.35 2 1.7 2 0 2 C0 1.34 0 0.68 0 0 Z " fill="#513D27" transform="translate(524,153)"/>
<path d="M0 0 C0.99 0.66 1.98 1.32 3 2 C1.35 2 -0.3 2 -2 2 C-1.34 1.34 -0.68 0.68 0 0 Z " fill="#513E27" transform="translate(508,152)"/>
<path d="M0 0 C1.65 0 3.3 0 5 0 C5 0.33 5 0.66 5 1 C3.35 1 1.7 1 0 1 C0 0.67 0 0.34 0 0 Z " fill="#58422B" transform="translate(647,871)"/>
<path d="M0 0 C1.65 0 3.3 0 5 0 C5 0.33 5 0.66 5 1 C3.35 1 1.7 1 0 1 C0 0.67 0 0.34 0 0 Z " fill="#5A432B" transform="translate(388,871)"/>
<path d="M0 0 C0.33 0.99 0.66 1.98 1 3 C0.01 3.495 0.01 3.495 -1 4 C-0.67 2.68 -0.34 1.36 0 0 Z " fill="#503B25" transform="translate(73,544)"/>
<path d="M0 0 C0.99 0 1.98 0 3 0 C3 0.66 3 1.32 3 2 C2.01 1.67 1.02 1.34 0 1 C0 0.67 0 0.34 0 0 Z " fill="#494337" transform="translate(932,530)"/>
<path d="M0 0 C0.33 0.99 0.66 1.98 1 3 C0.34 3 -0.32 3 -1 3 C-0.67 2.01 -0.34 1.02 0 0 Z " fill="#523B25" transform="translate(137,506)"/>
<path d="M0 0 C0.99 0.33 1.98 0.66 3 1 C2.01 1.33 1.02 1.66 0 2 C0 1.34 0 0.68 0 0 Z " fill="#4B4639" transform="translate(801,185)"/>
<path d="M0 0 C0.99 0.33 1.98 0.66 3 1 C2.01 1.33 1.02 1.66 0 2 C0 1.34 0 0.68 0 0 Z " fill="#573E26" transform="translate(223,184)"/>
<path d="M0 0 C1.65 0 3.3 0 5 0 C5 0.33 5 0.66 5 1 C3.35 1 1.7 1 0 1 C0 0.67 0 0.34 0 0 Z " fill="#4C483B" transform="translate(791,184)"/>
<path d="M0 0 C1.32 0.33 2.64 0.66 4 1 C2.68 1.33 1.36 1.66 0 2 C0 1.34 0 0.68 0 0 Z " fill="#513C25" transform="translate(414,176)"/>
<path d="M0 0 C1.485 0.99 1.485 0.99 3 2 C1.68 1.67 0.36 1.34 -1 1 C-0.67 0.67 -0.34 0.34 0 0 Z " fill="#523F28" transform="translate(534,154)"/>
<path d="M0 0 C4 1 4 1 4 1 Z " fill="#54412D" transform="translate(727,871)"/>
<path d="M0 0 C4 1 4 1 4 1 Z " fill="#59432B" transform="translate(631,871)"/>
<path d="M0 0 C4 1 4 1 4 1 Z " fill="#59432C" transform="translate(615,871)"/>
<path d="M0 0 C4 1 4 1 4 1 Z " fill="#59432C" transform="translate(583,871)"/>
<path d="M0 0 C4 1 4 1 4 1 Z " fill="#59432A" transform="translate(567,871)"/>
<path d="M0 0 C4 1 4 1 4 1 Z " fill="#59432B" transform="translate(559,871)"/>
<path d="M0 0 C4 1 4 1 4 1 Z " fill="#59422B" transform="translate(551,871)"/>
<path d="M0 0 C4 1 4 1 4 1 Z " fill="#59422B" transform="translate(543,871)"/>
<path d="M0 0 C4 1 4 1 4 1 Z " fill="#5A432A" transform="translate(488,871)"/>
<path d="M0 0 C0.99 0.33 1.98 0.66 3 1 C2.01 1.33 1.02 1.66 0 2 C0 1.34 0 0.68 0 0 Z " fill="#4C3724" transform="translate(74,773)"/>
<path d="M0 0 C0.99 0.33 1.98 0.66 3 1 C2.01 1 1.02 1 0 1 C0 0.67 0 0.34 0 0 Z " fill="#4B3521" transform="translate(57,765)"/>
<path d="M0 0 C1 4 1 4 1 4 Z " fill="#553E26" transform="translate(32,725)"/>
<path d="M0 0 C1.485 0.99 1.485 0.99 3 2 C2.01 2 1.02 2 0 2 C0 1.34 0 0.68 0 0 Z " fill="#503B26" transform="translate(147,486)"/>
<path d="M0 0 C0 3 0 3 0 3 Z " fill="#4C3923" transform="translate(91,304)"/>
<path d="M0 0 C1 4 1 4 1 4 Z " fill="#4E3923" transform="translate(96,288)"/>
<path d="M0 0 C0.99 0.33 1.98 0.66 3 1 C2.01 1 1.02 1 0 1 C0 0.67 0 0.34 0 0 Z " fill="#4C3620" transform="translate(120,242)"/>
<path d="M0 0 C0.99 0.33 1.98 0.66 3 1 C2.01 1.33 1.02 1.66 0 2 C0 1.34 0 0.68 0 0 Z " fill="#4B351F" transform="translate(360,216)"/>
<path d="M0 0 C1.485 0.99 1.485 0.99 3 2 C2.01 2 1.02 2 0 2 C0 1.34 0 0.68 0 0 Z " fill="#4E3923" transform="translate(332,202)"/>
<path d="M0 0 C0.99 0 1.98 0 3 0 C2.67 0.66 2.34 1.32 2 2 C1.34 1.34 0.68 0.68 0 0 Z " fill="#483A2A" transform="translate(629,192)"/>
<path d="M0 0 C4 1 4 1 4 1 Z " fill="#4E3B25" transform="translate(306,192)"/>
<path d="M0 0 C0.99 0.33 1.98 0.66 3 1 C2.01 1 1.02 1 0 1 C0 0.67 0 0.34 0 0 Z " fill="#4F3B24" transform="translate(410,176)"/>
<path d="M0 0 C4 1 4 1 4 1 Z " fill="#493823" transform="translate(558,160)"/>
<path d="M0 0 C4 1 4 1 4 1 Z " fill="#503E27" transform="translate(512,153)"/>
<path d="M0 0 C3 1 3 1 3 1 Z " fill="#53422D" transform="translate(736,871)"/>
<path d="M0 0 C3 1 3 1 3 1 Z " fill="#59422C" transform="translate(640,871)"/>
<path d="M0 0 C3 1 3 1 3 1 Z " fill="#59442C" transform="translate(600,871)"/>
<path d="M0 0 C3 1 3 1 3 1 Z " fill="#59422A" transform="translate(592,871)"/>
<path d="M0 0 C3 1 3 1 3 1 Z " fill="#5A442B" transform="translate(536,871)"/>
<path d="M0 0 C3 1 3 1 3 1 Z " fill="#5A442C" transform="translate(532,871)"/>
<path d="M0 0 C3 1 3 1 3 1 Z " fill="#59442B" transform="translate(528,871)"/>
<path d="M0 0 C3 1 3 1 3 1 Z " fill="#5A442A" transform="translate(520,871)"/>
<path d="M0 0 C3 1 3 1 3 1 Z " fill="#57412A" transform="translate(480,871)"/>
<path d="M0 0 C3 1 3 1 3 1 Z " fill="#58422B" transform="translate(472,871)"/>
<path d="M0 0 C3 1 3 1 3 1 Z " fill="#5A432A" transform="translate(448,871)"/>
<path d="M0 0 C3 1 3 1 3 1 Z " fill="#5A422A" transform="translate(384,871)"/>
<path d="M0 0 C3 1 3 1 3 1 Z " fill="#5C442B" transform="translate(376,871)"/>
<path d="M0 0 C3 1 3 1 3 1 Z " fill="#5A442B" transform="translate(360,871)"/>
<path d="M0 0 C3 1 3 1 3 1 Z " fill="#5B4429" transform="translate(344,871)"/>
<path d="M0 0 C3 1 3 1 3 1 Z " fill="#5A432A" transform="translate(320,871)"/>
<path d="M0 0 C3 1 3 1 3 1 Z " fill="#5A432A" transform="translate(308,871)"/>
<path d="M0 0 C3 1 3 1 3 1 Z " fill="#5A432B" transform="translate(304,871)"/>
<path d="M0 0 C3 1 3 1 3 1 Z " fill="#584229" transform="translate(288,871)"/>
<path d="M0 0 C3 1 3 1 3 1 Z " fill="#553F28" transform="translate(272,871)"/>
<path d="M0 0 C0.66 0 1.32 0 2 0 C1.67 0.66 1.34 1.32 1 2 C0.67 1.34 0.34 0.68 0 0 Z " fill="#4B3E2C" transform="translate(755,870)"/>
<path d="M0 0 C0.99 0.495 0.99 0.495 2 1 C1.01 1.495 1.01 1.495 0 2 C0 1.34 0 0.68 0 0 Z " fill="#4B3822" transform="translate(240,861)"/>
<path d="M0 0 C0.99 0.495 0.99 0.495 2 1 C1.01 1.495 1.01 1.495 0 2 C0 1.34 0 0.68 0 0 Z " fill="#483624" transform="translate(218,842)"/>
<path d="" fill="#4D3924" transform="translate(0,0)"/>
<path d="" fill="#4E483B" transform="translate(0,0)"/>
<path d="" fill="#563F29" transform="translate(0,0)"/>
<path d="M0 0 C0.99 0.495 0.99 0.495 2 1 C1.01 1.495 1.01 1.495 0 2 C0 1.34 0 0.68 0 0 Z " fill="#503C26" transform="translate(48,571)"/>
<path d="M0 0 C0.66 0 1.32 0 2 0 C1.67 0.66 1.34 1.32 1 2 C0.67 1.34 0.34 0.68 0 0 Z " fill="#474337" transform="translate(950,545)"/>
<path d="M0 0 C0.33 0.66 0.66 1.32 1 2 C0.34 1.67 -0.32 1.34 -1 1 C-0.67 0.67 -0.34 0.34 0 0 Z " fill="#474336" transform="translate(919,521)"/>
<path d="M0 0 C0.66 0.66 1.32 1.32 2 2 C1.34 2 0.68 2 0 2 C0 1.34 0 0.68 0 0 Z " fill="#4B463A" transform="translate(884,504)"/>
<path d="M0 0 C3 1 3 1 3 1 Z " fill="#3F3930" transform="translate(870,504)"/>
<path d="M0 0 C0.66 0.66 1.32 1.32 2 2 C1.34 2 0.68 2 0 2 C0 1.34 0 0.68 0 0 Z " fill="#513A28" transform="translate(145,484)"/>
<path d="M0 0 C0.66 0.66 1.32 1.32 2 2 C1.34 2 0.68 2 0 2 C0 1.34 0 0.68 0 0 Z " fill="#543E28" transform="translate(130,470)"/>
<path d="M0 0 C0.33 0.66 0.66 1.32 1 2 C0.34 1.67 -0.32 1.34 -1 1 C-0.67 0.67 -0.34 0.34 0 0 Z " fill="#553F27" transform="translate(90,395)"/>
<path d="" fill="#443E33" transform="translate(0,0)"/>
<path d="M0 0 C0.99 0.495 0.99 0.495 2 1 C1.01 1.495 1.01 1.495 0 2 C0 1.34 0 0.68 0 0 Z " fill="#4B3620" transform="translate(130,233)"/>
<path d="M0 0 C0.33 0.66 0.66 1.32 1 2 C0.34 1.67 -0.32 1.34 -1 1 C-0.67 0.67 -0.34 0.34 0 0 Z " fill="#3D392E" transform="translate(871,216)"/>
<path d="M0 0 C0.66 0.66 1.32 1.32 2 2 C1.34 2 0.68 2 0 2 C0 1.34 0 0.68 0 0 Z " fill="#533D27" transform="translate(318,195)"/>
<path d="M0 0 C0.99 0.495 0.99 0.495 2 1 C1.01 1.495 1.01 1.495 0 2 C0 1.34 0 0.68 0 0 Z " fill="#4C3A25" transform="translate(384,193)"/>
<path d="M0 0 C3 1 3 1 3 1 Z " fill="#4F4B3E" transform="translate(728,187)"/>
<path d="M0 0 C3 1 3 1 3 1 Z " fill="#553F29" transform="translate(292,187)"/>
<path d="M0 0 C0.99 0.495 0.99 0.495 2 1 C1.01 1.495 1.01 1.495 0 2 C0 1.34 0 0.68 0 0 Z " fill="#4E3823" transform="translate(399,185)"/>
<path d="M0 0 C0.66 0 1.32 0 2 0 C1.67 0.66 1.34 1.32 1 2 C0.67 1.34 0.34 0.68 0 0 Z " fill="#553F28" transform="translate(284,185)"/>
<path d="M0 0 C3 1 3 1 3 1 Z " fill="#523E26" transform="translate(539,156)"/>
<path d="M0 0 C2 1 2 1 2 1 Z " fill="#52422E" transform="translate(740,871)"/>
<path d="M0 0 C2 1 2 1 2 1 Z " fill="#58452F" transform="translate(724,871)"/>
<path d="M0 0 C2 1 2 1 2 1 Z " fill="#58442F" transform="translate(720,871)"/>
<path d="M0 0 C2 1 2 1 2 1 Z " fill="#57442C" transform="translate(692,871)"/>
<path d="M0 0 C2 1 2 1 2 1 Z " fill="#58442E" transform="translate(676,871)"/>
<path d="M0 0 C2 1 2 1 2 1 Z " fill="#5B442C" transform="translate(636,871)"/>
<path d="M0 0 C2 1 2 1 2 1 Z " fill="#59432C" transform="translate(597,871)"/>
<path d="M0 0 C2 1 2 1 2 1 Z " fill="#59422C" transform="translate(572,871)"/>
<path d="M0 0 C2 1 2 1 2 1 Z " fill="#59442D" transform="translate(564,871)"/>
<path d="M0 0 C2 1 2 1 2 1 Z " fill="#59432C" transform="translate(548,871)"/>
<path d="M0 0 C2 1 2 1 2 1 Z " fill="#5B432C" transform="translate(524,871)"/>
<path d="M0 0 C2 1 2 1 2 1 Z " fill="#5A452A" transform="translate(512,871)"/>
<path d="M0 0 C2 1 2 1 2 1 Z " fill="#5B432C" transform="translate(493,871)"/>
<path d="M0 0 C2 1 2 1 2 1 Z " fill="#5A422B" transform="translate(484,871)"/>
<path d="M0 0 C2 1 2 1 2 1 Z " fill="#5B422B" transform="translate(445,871)"/>
<path d="M0 0 C2 1 2 1 2 1 Z " fill="#5A402A" transform="translate(394,871)"/>
<path d="M0 0 C2 1 2 1 2 1 Z " fill="#5C432D" transform="translate(373,871)"/>
<path d="M0 0 C2 1 2 1 2 1 Z " fill="#5A412A" transform="translate(341,871)"/>
<path d="M0 0 C2 1 2 1 2 1 Z " fill="#5C432A" transform="translate(328,871)"/>
<path d="M0 0 C2 1 2 1 2 1 Z " fill="#5A422A" transform="translate(324,871)"/>
<path d="M0 0 C2 1 2 1 2 1 Z " fill="#4B3E2A" transform="translate(752,870)"/>
<path d="M0 0 C2 1 2 1 2 1 Z " fill="#4A402D" transform="translate(766,867)"/>
<path d="M0 0 C2 1 2 1 2 1 Z " fill="#4D3A24" transform="translate(253,867)"/>
<path d="M0 0 C2 1 2 1 2 1 Z " fill="#4A3722" transform="translate(209,831)"/>
<path d="" fill="#494134" transform="translate(0,0)"/>
<path d="" fill="#4E3923" transform="translate(0,0)"/>
<path d="" fill="#423C2E" transform="translate(0,0)"/>
<path d="M0 0 C2 1 2 1 2 1 Z " fill="#484032" transform="translate(945,773)"/>
<path d="" fill="#523A25" transform="translate(0,0)"/>
<path d="M0 0 C2 1 2 1 2 1 Z " fill="#523D28" transform="translate(43,585)"/>
<path d="M0 0 C2 1 2 1 2 1 Z " fill="#533B28" transform="translate(95,528)"/>
<path d="M0 0 C2 1 2 1 2 1 Z " fill="#4E3924" transform="translate(104,522)"/>
<path d="M0 0 C2 1 2 1 2 1 Z " fill="#494439" transform="translate(916,521)"/>
<path d="M0 0 C2 1 2 1 2 1 Z " fill="#474337" transform="translate(914,520)"/>
<path d="M0 0 C2 1 2 1 2 1 Z " fill="#494438" transform="translate(902,514)"/>
<path d="M0 0 C2 1 2 1 2 1 Z " fill="#4C3723" transform="translate(120,514)"/>
<path d="M0 0 C2 1 2 1 2 1 Z " fill="#503822" transform="translate(125,512)"/>
<path d="M0 0 C2 1 2 1 2 1 Z " fill="#4B463A" transform="translate(882,507)"/>
<path d="M0 0 C2 1 2 1 2 1 Z " fill="#443E35" transform="translate(863,495)"/>
<path d="M0 0 C2 1 2 1 2 1 Z " fill="#553F28" transform="translate(114,451)"/>
<path d="" fill="#513B26" transform="translate(0,0)"/>
<path d="" fill="#473F35" transform="translate(0,0)"/>
<path d="" fill="#4B3722" transform="translate(0,0)"/>
<path d="" fill="#454034" transform="translate(0,0)"/>
<path d="M0 0 C2 1 2 1 2 1 Z " fill="#443D32" transform="translate(924,283)"/>
<path d="M0 0 C2 1 2 1 2 1 Z " fill="#4E3823" transform="translate(96,283)"/>
<path d="" fill="#413D33" transform="translate(0,0)"/>
<path d="M0 0 C2 1 2 1 2 1 Z " fill="#3E3A30" transform="translate(902,248)"/>
<path d="M0 0 C2 1 2 1 2 1 Z " fill="#4D3722" transform="translate(122,241)"/>
<path d="M0 0 C2 1 2 1 2 1 Z " fill="#423C30" transform="translate(888,232)"/>
<path d="" fill="#4C3622" transform="translate(0,0)"/>
<path d="" fill="#4E3721" transform="translate(0,0)"/>
<path d="M0 0 C2 1 2 1 2 1 Z " fill="#4C3923" transform="translate(343,209)"/>
<path d="M0 0 C2 1 2 1 2 1 Z " fill="#474133" transform="translate(688,203)"/>
<path d="M0 0 C2 1 2 1 2 1 Z " fill="#433D32" transform="translate(690,202)"/>
<path d="M0 0 C2 1 2 1 2 1 Z " fill="#413E32" transform="translate(842,200)"/>
<path d="M0 0 C2 1 2 1 2 1 Z " fill="#493723" transform="translate(326,200)"/>
<path d="M0 0 C2 1 2 1 2 1 Z " fill="#4F3A22" transform="translate(384,196)"/>
<path d="" fill="#484235" transform="translate(0,0)"/>
<path d="M0 0 C2 1 2 1 2 1 Z " fill="#4E3A25" transform="translate(310,193)"/>
<path d="M0 0 C2 1 2 1 2 1 Z " fill="#513922" transform="translate(197,192)"/>
<path d="" fill="#564129" transform="translate(0,0)"/>
<path d="M0 0 C2 1 2 1 2 1 Z " fill="#543D27" transform="translate(275,184)"/>
<path d="" fill="#513B25" transform="translate(0,0)"/>
<path d="M0 0 C2 1 2 1 2 1 Z " fill="#4D3C26" transform="translate(604,177)"/>
<path d="M0 0 C2 1 2 1 2 1 Z " fill="#503F2A" transform="translate(591,171)"/>
<path d="M0 0 C2 1 2 1 2 1 Z " fill="#503C25" transform="translate(429,170)"/>
<path d="M0 0 C2 1 2 1 2 1 Z " fill="#534029" transform="translate(570,163)"/>
<path d="M0 0 C2 1 2 1 2 1 Z " fill="#4A3A24" transform="translate(566,162)"/>
<path d="" fill="#533E28" transform="translate(0,0)"/>
<path d="M0 0 C2 1 2 1 2 1 Z " fill="#523D25" transform="translate(491,154)"/>
<path d="M0 0 C2 1 2 1 2 1 Z " fill="#544129" transform="translate(486,154)"/>
<path d="M0 0 C2 1 2 1 2 1 Z " fill="#544028" transform="translate(498,153)"/>
<path d="" fill="#0C0A05" transform="translate(0,0)"/>
<path d="" fill="#030200" transform="translate(0,0)"/>
<path d="" fill="#0A0A04" transform="translate(0,0)"/>
<path d="" fill="#2F2313" transform="translate(0,0)"/>
<path d="" fill="#0D0C06" transform="translate(0,0)"/>
<path d="" fill="#53422C" transform="translate(0,0)"/>
<path d="" fill="#564330" transform="translate(0,0)"/>
<path d="" fill="#59422B" transform="translate(0,0)"/>
<path d="" fill="#5A432A" transform="translate(0,0)"/>
<path d="" fill="#5A422A" transform="translate(0,0)"/>
<path d="" fill="#5C432C" transform="translate(0,0)"/>
<path d="" fill="#5B442E" transform="translate(0,0)"/>
<path d="" fill="#5A432D" transform="translate(0,0)"/>
<path d="" fill="#5B452C" transform="translate(0,0)"/>
<path d="" fill="#5B442C" transform="translate(0,0)"/>
<path d="" fill="#5B422C" transform="translate(0,0)"/>
<path d="" fill="#5A412C" transform="translate(0,0)"/>
<path d="" fill="#5B442B" transform="translate(0,0)"/>
<path d="" fill="#5C442A" transform="translate(0,0)"/>
<path d="" fill="#5B452A" transform="translate(0,0)"/>
<path d="" fill="#5A432A" transform="translate(0,0)"/>
<path d="" fill="#5B442A" transform="translate(0,0)"/>
<path d="" fill="#5B4129" transform="translate(0,0)"/>
<path d="" fill="#5B422B" transform="translate(0,0)"/>
<path d="" fill="#5B422B" transform="translate(0,0)"/>
<path d="" fill="#5C432C" transform="translate(0,0)"/>
<path d="" fill="#5D452B" transform="translate(0,0)"/>
<path d="" fill="#5A4329" transform="translate(0,0)"/>
<path d="" fill="#58412B" transform="translate(0,0)"/>
<path d="" fill="#5C442B" transform="translate(0,0)"/>
<path d="" fill="#5A4329" transform="translate(0,0)"/>
<path d="" fill="#5B442C" transform="translate(0,0)"/>
<path d="" fill="#58432A" transform="translate(0,0)"/>
<path d="" fill="#5A452D" transform="translate(0,0)"/>
<path d="" fill="#584029" transform="translate(0,0)"/>
<path d="" fill="#5A4129" transform="translate(0,0)"/>
<path d="" fill="#57422A" transform="translate(0,0)"/>
<path d="" fill="#553F29" transform="translate(0,0)"/>
<path d="" fill="#493825" transform="translate(0,0)"/>
<path d="" fill="#4B3923" transform="translate(0,0)"/>
<path d="" fill="#4B3F2C" transform="translate(0,0)"/>
<path d="" fill="#4D3924" transform="translate(0,0)"/>
<path d="" fill="#4F3B26" transform="translate(0,0)"/>
<path d="" fill="#4C3F2D" transform="translate(0,0)"/>
<path d="" fill="#4A402E" transform="translate(0,0)"/>
<path d="" fill="#4D3A25" transform="translate(0,0)"/>
<path d="" fill="#4D3A25" transform="translate(0,0)"/>
<path d="" fill="#493523" transform="translate(0,0)"/>
<path d="" fill="#49402C" transform="translate(0,0)"/>
<path d="" fill="#4A3623" transform="translate(0,0)"/>
<path d="" fill="#4A3722" transform="translate(0,0)"/>
<path d="" fill="#483522" transform="translate(0,0)"/>
<path d="" fill="#4B3724" transform="translate(0,0)"/>
<path d="" fill="#4F3C27" transform="translate(0,0)"/>
<path d="" fill="#4A3A22" transform="translate(0,0)"/>
<path d="" fill="#4A3822" transform="translate(0,0)"/>
<path d="" fill="#494032" transform="translate(0,0)"/>
<path d="" fill="#4E3C25" transform="translate(0,0)"/>
<path d="" fill="#4E3B25" transform="translate(0,0)"/>
<path d="" fill="#4E3A25" transform="translate(0,0)"/>
<path d="" fill="#4D3623" transform="translate(0,0)"/>
<path d="" fill="#483F35" transform="translate(0,0)"/>
<path d="" fill="#443D32" transform="translate(0,0)"/>
<path d="" fill="#4F3A25" transform="translate(0,0)"/>
<path d="" fill="#4E3A25" transform="translate(0,0)"/>
<path d="" fill="#4B4333" transform="translate(0,0)"/>
<path d="" fill="#4A4136" transform="translate(0,0)"/>
<path d="" fill="#4C4234" transform="translate(0,0)"/>
<path d="" fill="#484134" transform="translate(0,0)"/>
<path d="" fill="#503B25" transform="translate(0,0)"/>
<path d="" fill="#4F3824" transform="translate(0,0)"/>
<path d="" fill="#4F3A25" transform="translate(0,0)"/>
<path d="" fill="#4B3623" transform="translate(0,0)"/>
<path d="" fill="#4B3622" transform="translate(0,0)"/>
<path d="" fill="#443D33" transform="translate(0,0)"/>
<path d="" fill="#463F34" transform="translate(0,0)"/>
<path d="" fill="#4E3923" transform="translate(0,0)"/>
<path d="" fill="#4C3521" transform="translate(0,0)"/>
<path d="" fill="#533F28" transform="translate(0,0)"/>
<path d="" fill="#523D26" transform="translate(0,0)"/>
<path d="" fill="#533F25" transform="translate(0,0)"/>
<path d="" fill="#523E29" transform="translate(0,0)"/>
<path d="" fill="#533D28" transform="translate(0,0)"/>
<path d="" fill="#523D26" transform="translate(0,0)"/>
<path d="" fill="#543B28" transform="translate(0,0)"/>
<path d="" fill="#4D493D" transform="translate(0,0)"/>
<path d="" fill="#50493E" transform="translate(0,0)"/>
<path d="" fill="#5D452B" transform="translate(0,0)"/>
<path d="" fill="#5D442A" transform="translate(0,0)"/>
<path d="" fill="#575143" transform="translate(0,0)"/>
<path d="" fill="#585243" transform="translate(0,0)"/>
<path d="" fill="#5A5447" transform="translate(0,0)"/>
<path d="" fill="#4D483B" transform="translate(0,0)"/>
<path d="" fill="#4F4A3E" transform="translate(0,0)"/>
<path d="" fill="#553E2A" transform="translate(0,0)"/>
<path d="" fill="#513B2A" transform="translate(0,0)"/>
<path d="" fill="#4F4B3E" transform="translate(0,0)"/>
<path d="" fill="#4F493B" transform="translate(0,0)"/>
<path d="" fill="#543E29" transform="translate(0,0)"/>
<path d="" fill="#595143" transform="translate(0,0)"/>
<path d="" fill="#523C28" transform="translate(0,0)"/>
<path d="" fill="#4F3B28" transform="translate(0,0)"/>
<path d="" fill="#513C27" transform="translate(0,0)"/>
<path d="" fill="#523A26" transform="translate(0,0)"/>
<path d="" fill="#484438" transform="translate(0,0)"/>
<path d="" fill="#4E3826" transform="translate(0,0)"/>
<path d="" fill="#523A25" transform="translate(0,0)"/>
<path d="" fill="#47423A" transform="translate(0,0)"/>
<path d="" fill="#503B25" transform="translate(0,0)"/>
<path d="" fill="#503B25" transform="translate(0,0)"/>
<path d="" fill="#503A22" transform="translate(0,0)"/>
<path d="" fill="#533B26" transform="translate(0,0)"/>
<path d="" fill="#474335" transform="translate(0,0)"/>
<path d="" fill="#523C26" transform="translate(0,0)"/>
<path d="" fill="#523D28" transform="translate(0,0)"/>
<path d="" fill="#464338" transform="translate(0,0)"/>
<path d="" fill="#523C26" transform="translate(0,0)"/>
<path d="" fill="#454236" transform="translate(0,0)"/>
<path d="" fill="#503924" transform="translate(0,0)"/>
<path d="" fill="#513B24" transform="translate(0,0)"/>
<path d="" fill="#4B463A" transform="translate(0,0)"/>
<path d="" fill="#464137" transform="translate(0,0)"/>
<path d="" fill="#513B28" transform="translate(0,0)"/>
<path d="" fill="#464438" transform="translate(0,0)"/>
<path d="" fill="#47443A" transform="translate(0,0)"/>
<path d="" fill="#513A23" transform="translate(0,0)"/>
<path d="" fill="#4B4139" transform="translate(0,0)"/>
<path d="" fill="#4D3725" transform="translate(0,0)"/>
<path d="" fill="#513823" transform="translate(0,0)"/>
<path d="" fill="#484036" transform="translate(0,0)"/>
<path d="" fill="#494337" transform="translate(0,0)"/>
<path d="" fill="#503924" transform="translate(0,0)"/>
<path d="" fill="#533C26" transform="translate(0,0)"/>
<path d="" fill="#4E483B" transform="translate(0,0)"/>
<path d="" fill="#543E27" transform="translate(0,0)"/>
<path d="" fill="#4B4637" transform="translate(0,0)"/>
<path d="" fill="#494338" transform="translate(0,0)"/>
<path d="" fill="#4E3923" transform="translate(0,0)"/>
<path d="" fill="#4C493E" transform="translate(0,0)"/>
<path d="" fill="#503C24" transform="translate(0,0)"/>
<path d="" fill="#503A23" transform="translate(0,0)"/>
<path d="" fill="#4D4538" transform="translate(0,0)"/>
<path d="" fill="#523A23" transform="translate(0,0)"/>
<path d="" fill="#454135" transform="translate(0,0)"/>
<path d="" fill="#4F3925" transform="translate(0,0)"/>
<path d="" fill="#523D25" transform="translate(0,0)"/>
<path d="" fill="#444336" transform="translate(0,0)"/>
<path d="" fill="#3E3A2E" transform="translate(0,0)"/>
<path d="" fill="#464137" transform="translate(0,0)"/>
<path d="" fill="#503923" transform="translate(0,0)"/>
<path d="" fill="#4F3823" transform="translate(0,0)"/>
<path d="" fill="#4F3A25" transform="translate(0,0)"/>
<path d="" fill="#4E3924" transform="translate(0,0)"/>
<path d="" fill="#503B27" transform="translate(0,0)"/>
<path d="" fill="#503A26" transform="translate(0,0)"/>
<path d="" fill="#513B26" transform="translate(0,0)"/>
<path d="" fill="#4E4A3E" transform="translate(0,0)"/>
<path d="" fill="#4B493C" transform="translate(0,0)"/>
<path d="" fill="#4C473B" transform="translate(0,0)"/>
<path d="" fill="#4D483D" transform="translate(0,0)"/>
<path d="" fill="#4C493E" transform="translate(0,0)"/>
<path d="" fill="#543F28" transform="translate(0,0)"/>
<path d="" fill="#4E4941" transform="translate(0,0)"/>
<path d="" fill="#533C27" transform="translate(0,0)"/>
<path d="" fill="#4F4A3E" transform="translate(0,0)"/>
<path d="" fill="#4C493E" transform="translate(0,0)"/>
<path d="" fill="#543E27" transform="translate(0,0)"/>
<path d="" fill="#533B27" transform="translate(0,0)"/>
<path d="" fill="#533926" transform="translate(0,0)"/>
<path d="" fill="#4B483F" transform="translate(0,0)"/>
<path d="" fill="#563E29" transform="translate(0,0)"/>
<path d="" fill="#4E493E" transform="translate(0,0)"/>
<path d="" fill="#4D483E" transform="translate(0,0)"/>
<path d="" fill="#553F2A" transform="translate(0,0)"/>
<path d="" fill="#534D41" transform="translate(0,0)"/>
<path d="" fill="#574029" transform="translate(0,0)"/>
<path d="" fill="#523D26" transform="translate(0,0)"/>
<path d="" fill="#4B4639" transform="translate(0,0)"/>
<path d="" fill="#4C4A40" transform="translate(0,0)"/>
<path d="" fill="#543E26" transform="translate(0,0)"/>
<path d="" fill="#48463E" transform="translate(0,0)"/>
<path d="" fill="#554026" transform="translate(0,0)"/>
<path d="" fill="#553C25" transform="translate(0,0)"/>
<path d="" fill="#553E2A" transform="translate(0,0)"/>
<path d="" fill="#474236" transform="translate(0,0)"/>
<path d="" fill="#4F4A3D" transform="translate(0,0)"/>
<path d="" fill="#553E28" transform="translate(0,0)"/>
<path d="" fill="#533E28" transform="translate(0,0)"/>
<path d="" fill="#49433A" transform="translate(0,0)"/>
<path d="" fill="#56402A" transform="translate(0,0)"/>
<path d="" fill="#4E4C40" transform="translate(0,0)"/>
<path d="" fill="#4D483C" transform="translate(0,0)"/>
<path d="" fill="#563D27" transform="translate(0,0)"/>
<path d="" fill="#543F28" transform="translate(0,0)"/>
<path d="" fill="#4B483B" transform="translate(0,0)"/>
<path d="" fill="#584028" transform="translate(0,0)"/>
<path d="" fill="#564028" transform="translate(0,0)"/>
<path d="" fill="#564027" transform="translate(0,0)"/>
<path d="" fill="#454234" transform="translate(0,0)"/>
<path d="" fill="#563F27" transform="translate(0,0)"/>
<path d="" fill="#4A4538" transform="translate(0,0)"/>
<path d="" fill="#533E25" transform="translate(0,0)"/>
<path d="" fill="#454031" transform="translate(0,0)"/>
<path d="" fill="#423D32" transform="translate(0,0)"/>
<path d="" fill="#453E30" transform="translate(0,0)"/>
<path d="" fill="#494333" transform="translate(0,0)"/>
<path d="" fill="#403C2C" transform="translate(0,0)"/>
<path d="" fill="#503B25" transform="translate(0,0)"/>
<path d="" fill="#4F3824" transform="translate(0,0)"/>
<path d="" fill="#523C26" transform="translate(0,0)"/>
<path d="" fill="#474135" transform="translate(0,0)"/>
<path d="" fill="#523A23" transform="translate(0,0)"/>
<path d="" fill="#443F32" transform="translate(0,0)"/>
<path d="" fill="#4D3821" transform="translate(0,0)"/>
<path d="" fill="#454035" transform="translate(0,0)"/>
<path d="" fill="#4B3623" transform="translate(0,0)"/>
<path d="" fill="#4F3820" transform="translate(0,0)"/>
<path d="" fill="#463F34" transform="translate(0,0)"/>
<path d="" fill="#4D3821" transform="translate(0,0)"/>
<path d="" fill="#4C3723" transform="translate(0,0)"/>
<path d="" fill="#4A361E" transform="translate(0,0)"/>
<path d="" fill="#523B24" transform="translate(0,0)"/>
<path d="" fill="#4F3723" transform="translate(0,0)"/>
<path d="" fill="#4E3825" transform="translate(0,0)"/>
<path d="" fill="#4C3520" transform="translate(0,0)"/>
<path d="" fill="#443C31" transform="translate(0,0)"/>
<path d="" fill="#4C3522" transform="translate(0,0)"/>
<path d="" fill="#433D2F" transform="translate(0,0)"/>
<path d="" fill="#41372D" transform="translate(0,0)"/>
<path d="" fill="#4D351F" transform="translate(0,0)"/>
<path d="" fill="#403A2F" transform="translate(0,0)"/>
<path d="" fill="#453E31" transform="translate(0,0)"/>
<path d="" fill="#503722" transform="translate(0,0)"/>
<path d="" fill="#503725" transform="translate(0,0)"/>
<path d="" fill="#443C31" transform="translate(0,0)"/>
<path d="" fill="#4E3923" transform="translate(0,0)"/>
<path d="" fill="#453E32" transform="translate(0,0)"/>
<path d="" fill="#4C3723" transform="translate(0,0)"/>
<path d="" fill="#4E3620" transform="translate(0,0)"/>
<path d="" fill="#4E3825" transform="translate(0,0)"/>
<path d="" fill="#4A422D" transform="translate(0,0)"/>
<path d="" fill="#44392A" transform="translate(0,0)"/>
<path d="" fill="#473F2F" transform="translate(0,0)"/>
<path d="" fill="#4F3A23" transform="translate(0,0)"/>
<path d="" fill="#503922" transform="translate(0,0)"/>
<path d="" fill="#4D3522" transform="translate(0,0)"/>
<path d="" fill="#493620" transform="translate(0,0)"/>
<path d="" fill="#4E3920" transform="translate(0,0)"/>
<path d="" fill="#44392A" transform="translate(0,0)"/>
<path d="" fill="#513823" transform="translate(0,0)"/>
<path d="" fill="#4B351E" transform="translate(0,0)"/>
<path d="" fill="#523922" transform="translate(0,0)"/>
<path d="" fill="#4B3922" transform="translate(0,0)"/>
<path d="" fill="#543A22" transform="translate(0,0)"/>
<path d="" fill="#403B30" transform="translate(0,0)"/>
<path d="" fill="#513E25" transform="translate(0,0)"/>
<path d="" fill="#4C3720" transform="translate(0,0)"/>
<path d="" fill="#4E3C23" transform="translate(0,0)"/>
<path d="" fill="#483D2C" transform="translate(0,0)"/>
<path d="" fill="#503A25" transform="translate(0,0)"/>
<path d="" fill="#433B31" transform="translate(0,0)"/>
<path d="" fill="#463E31" transform="translate(0,0)"/>
<path d="" fill="#453F31" transform="translate(0,0)"/>
<path d="" fill="#453F30" transform="translate(0,0)"/>
<path d="" fill="#443D2E" transform="translate(0,0)"/>
<path d="" fill="#4A3D2A" transform="translate(0,0)"/>
<path d="" fill="#4F3822" transform="translate(0,0)"/>
<path d="" fill="#4B3A25" transform="translate(0,0)"/>
<path d="" fill="#4A4234" transform="translate(0,0)"/>
<path d="" fill="#464032" transform="translate(0,0)"/>
<path d="" fill="#4D3824" transform="translate(0,0)"/>
<path d="" fill="#474233" transform="translate(0,0)"/>
<path d="" fill="#4A402D" transform="translate(0,0)"/>
<path d="" fill="#474032" transform="translate(0,0)"/>
<path d="" fill="#4B3721" transform="translate(0,0)"/>
<path d="" fill="#403B30" transform="translate(0,0)"/>
<path d="" fill="#483D2B" transform="translate(0,0)"/>
<path d="" fill="#4B3823" transform="translate(0,0)"/>
<path d="" fill="#4F3922" transform="translate(0,0)"/>
<path d="" fill="#4E3823" transform="translate(0,0)"/>
<path d="" fill="#483D29" transform="translate(0,0)"/>
<path d="" fill="#4C3824" transform="translate(0,0)"/>
<path d="" fill="#483F34" transform="translate(0,0)"/>
<path d="" fill="#4E412C" transform="translate(0,0)"/>
<path d="" fill="#4C3621" transform="translate(0,0)"/>
<path d="" fill="#4A3521" transform="translate(0,0)"/>
<path d="" fill="#513B24" transform="translate(0,0)"/>
<path d="" fill="#4F3922" transform="translate(0,0)"/>
<path d="" fill="#50432D" transform="translate(0,0)"/>
<path d="" fill="#4F3523" transform="translate(0,0)"/>
<path d="" fill="#4B4236" transform="translate(0,0)"/>
<path d="" fill="#4E402D" transform="translate(0,0)"/>
<path d="" fill="#4E3C25" transform="translate(0,0)"/>
<path d="" fill="#523E29" transform="translate(0,0)"/>
<path d="" fill="#474034" transform="translate(0,0)"/>
<path d="" fill="#4A3620" transform="translate(0,0)"/>
<path d="" fill="#4D3722" transform="translate(0,0)"/>
<path d="" fill="#4E3822" transform="translate(0,0)"/>
<path d="" fill="#4B3621" transform="translate(0,0)"/>
<path d="" fill="#4F3A24" transform="translate(0,0)"/>
<path d="" fill="#4F3925" transform="translate(0,0)"/>
<path d="" fill="#4D3622" transform="translate(0,0)"/>
<path d="" fill="#523923" transform="translate(0,0)"/>
<path d="" fill="#4C4939" transform="translate(0,0)"/>
<path d="" fill="#4C473A" transform="translate(0,0)"/>
<path d="" fill="#4E3A23" transform="translate(0,0)"/>
<path d="" fill="#4F4A41" transform="translate(0,0)"/>
<path d="" fill="#4A4639" transform="translate(0,0)"/>
<path d="" fill="#543D25" transform="translate(0,0)"/>
<path d="" fill="#583E28" transform="translate(0,0)"/>
<path d="" fill="#523C27" transform="translate(0,0)"/>
<path d="" fill="#4B453A" transform="translate(0,0)"/>
<path d="" fill="#4E4B3C" transform="translate(0,0)"/>
<path d="" fill="#594026" transform="translate(0,0)"/>
<path d="" fill="#4B473B" transform="translate(0,0)"/>
<path d="" fill="#513D27" transform="translate(0,0)"/>
<path d="" fill="#523F25" transform="translate(0,0)"/>
<path d="" fill="#563F25" transform="translate(0,0)"/>
<path d="" fill="#514B3D" transform="translate(0,0)"/>
<path d="" fill="#4F3E25" transform="translate(0,0)"/>
<path d="" fill="#4B3B26" transform="translate(0,0)"/>
<path d="" fill="#503C24" transform="translate(0,0)"/>
<path d="" fill="#4C3C2A" transform="translate(0,0)"/>
<path d="" fill="#4E3E28" transform="translate(0,0)"/>
<path d="" fill="#4E3A23" transform="translate(0,0)"/>
<path d="" fill="#544028" transform="translate(0,0)"/>
<path d="" fill="#4E4229" transform="translate(0,0)"/>
<path d="" fill="#523D25" transform="translate(0,0)"/>
<path d="" fill="#4F3C26" transform="translate(0,0)"/>
<path d="" fill="#4F3D25" transform="translate(0,0)"/>
<path d="" fill="#503926" transform="translate(0,0)"/>
<path d="" fill="#513F28" transform="translate(0,0)"/>
<path d="" fill="#533B25" transform="translate(0,0)"/>
<path d="" fill="#503F27" transform="translate(0,0)"/>
<path d="" fill="#503D24" transform="translate(0,0)"/>
<path d="" fill="#503E26" transform="translate(0,0)"/>
<path d="" fill="#513C25" transform="translate(0,0)"/>
<path d="" fill="#4C3D26" transform="translate(0,0)"/>
<path d="" fill="#4C3F26" transform="translate(0,0)"/>
<path d="" fill="#523F2A" transform="translate(0,0)"/>
<path d="" fill="#533E26" transform="translate(0,0)"/>
<path d="" fill="#553F29" transform="translate(0,0)"/>
<path d="" fill="#543E27" transform="translate(0,0)"/>
<path d="" fill="#513C27" transform="translate(0,0)"/>
<path d="" fill="#533F28" transform="translate(0,0)"/>
<path d="" fill="#533E27" transform="translate(0,0)"/>
<path d="" fill="#43321F" transform="translate(0,0)"/>
<path d="" fill="#020200" transform="translate(0,0)"/>
<path d="" fill="#14140C" transform="translate(0,0)"/>
<path d="" fill="#120E05" transform="translate(0,0)"/>
<path d="" fill="#060601" transform="translate(0,0)"/>
<path d="" fill="#0A0600" transform="translate(0,0)"/>
</svg>
